<?xml version="1.0" standalone="no"?>
<!DOCTYPE svg PUBLIC "-//W3C//DTD SVG 20010904//EN"
 "http://www.w3.org/TR/2001/REC-SVG-20010904/DTD/svg10.dtd">
<svg version="1.0" xmlns="http://www.w3.org/2000/svg"
 width="256.000000pt" height="256.000000pt" viewBox="0 0 256.000000 256.000000"
 preserveAspectRatio="xMidYMid meet">

<g transform="translate(0.000000,256.000000) scale(0.100000,-0.100000)"
fill="#000000" stroke="none">
<path d="M1208 1913 c7 -3 16 -2 19 1 4 3 -2 6 -13 5 -11 0 -14 -3 -6 -6z"/>
<path d="M1338 1913 c6 -2 18 -2 25 0 6 3 1 5 -13 5 -14 0 -19 -2 -12 -5z"/>
<path d="M1152 1865 c-113 -25 -208 -79 -297 -169 -92 -93 -136 -167 -165
-282 -25 -98 -25 -200 0 -298 29 -116 73 -190 165 -281 87 -88 164 -132 276
-161 76 -20 213 -22 289 -5 136 32 279 127 359 241 l46 65 -70 -61 c-140 -121
-265 -185 -399 -205 -278 -42 -557 149 -622 427 -20 87 -14 226 13 305 73 213
267 367 488 386 306 26 593 -219 606 -516 2 -44 5 -50 27 -54 l25 -5 -6 77
c-14 201 -143 388 -332 482 -132 65 -267 83 -403 54z"/>
<path d="M869 1773 c-13 -16 -12 -17 4 -4 9 7 17 15 17 17 0 8 -8 3 -21 -13z"/>
<path d="M1163 1775 c-91 -20 -179 -70 -253 -145 -204 -205 -201 -529 6 -736
73 -74 158 -118 271 -141 69 -15 94 -16 162 -6 158 23 290 96 443 242 52 50
98 91 101 91 3 0 18 12 32 26 22 22 48 36 150 80 14 6 -3 10 -59 12 -69 3 -85
0 -140 -26 -33 -16 -94 -57 -135 -91 -104 -88 -136 -106 -219 -126 -153 -36
-300 0 -360 88 -51 74 -67 132 -66 234 1 84 4 99 35 160 37 75 93 125 157 143
20 5 72 10 115 10 66 0 86 -4 136 -29 32 -16 73 -47 91 -68 l33 -38 -6 35
c-10 49 -54 133 -95 181 -89 104 -230 141 -399 104z"/>
<path d="M1735 1730 c27 -27 51 -50 54 -50 3 0 -17 23 -44 50 -27 28 -51 50
-54 50 -3 0 17 -22 44 -50z"/>
<path d="M814 1728 l-19 -23 23 19 c21 18 27 26 19 26 -2 0 -12 -10 -23 -22z"/>
<path d="M764 1668 l-19 -23 23 19 c21 18 27 26 19 26 -2 0 -12 -10 -23 -22z"/>
<path d="M695 1559 c-9 -17 -15 -33 -13 -35 3 -2 12 12 21 31 21 43 13 47 -8
4z"/>
<path d="M1861 1560 c14 -31 19 -36 19 -24 0 6 -7 19 -16 30 -14 18 -14 18 -3
-6z"/>
<path d="M1921 1374 c0 -11 3 -14 6 -6 3 7 2 16 -1 19 -3 4 -6 -2 -5 -13z"/>
<path d="M1734 1214 c-22 -8 -77 -47 -123 -88 -113 -101 -175 -131 -268 -130
-55 1 -80 6 -109 23 -21 13 -32 16 -26 8 7 -8 36 -25 64 -37 43 -18 65 -21
142 -18 114 5 145 19 286 133 65 53 123 91 153 101 26 8 47 17 47 20 0 10
-129 1 -166 -12z"/>
<path d="M680 1006 c0 -11 30 -66 36 -66 2 0 -3 15 -12 33 -19 36 -24 44 -24
33z"/>
<path d="M1830 920 c-6 -11 -8 -20 -6 -20 3 0 10 9 16 20 6 11 8 20 6 20 -3 0
-10 -9 -16 -20z"/>
<path d="M741 894 c22 -32 93 -112 80 -89 -6 11 -29 40 -52 65 -23 25 -35 36
-28 24z"/>
<path d="M1760 828 c-29 -35 -41 -52 -26 -38 28 25 91 100 84 100 -2 0 -28
-28 -58 -62z"/>
<path d="M855 770 c10 -11 20 -20 23 -20 3 0 -3 9 -13 20 -10 11 -20 20 -23
20 -3 0 3 -9 13 -20z"/>
<path d="M1669 743 c-13 -16 -12 -17 4 -4 9 7 17 15 17 17 0 8 -8 3 -21 -13z"/>
<path d="M1570 685 c-14 -8 -20 -14 -14 -15 5 0 19 7 30 15 24 18 16 19 -16 0z"/>
<path d="M1398 623 c7 -3 16 -2 19 1 4 3 -2 6 -13 5 -11 0 -14 -3 -6 -6z"/>
<path d="M1223 613 c9 -2 23 -2 30 0 6 3 -1 5 -18 5 -16 0 -22 -2 -12 -5z"/>
<path d="M1313 613 c9 -2 25 -2 35 0 9 3 1 5 -18 5 -19 0 -27 -2 -17 -5z"/>
</g>
</svg>
